# xmcd
#
# Track frame offsets: 
#        150
#        14298
#        30868
#        44425
#        58874
#        78351
#        92971
#        104409
#        120641
#        134897
#        148679
#        165824
#        183726
#        210248
#
# Disc length: 2977 seconds
#
# Revision: 0
# Processed by: cddbd v1.5.2PL0 Copyright (c) Steve Scherf et al.
# Submitted via: ExactAudioCopy v0.99pb4
#
DISCID=bd0b9f0e
DTITLE=Geoff Muldaur and the Texas Sheiks - Texas Sheiks
DYEAR=2009
DGENRE=Blues
TTITLE0=The World Is Going Wrong
TTITLE1=All By Myself
TTITLE2=Poor Boy
TTITLE3=Fan It
TTITLE4=Hard Time Killin' Floor
TTITLE5=Sweet To Mama
TTITLE6=Don't Sell It, Don't Give It Away
TTITLE7=Cairo
TTITLE8=Under The Chicken Tree
TTITLE9=Please, Baby
TTITLE10=Blues In The Bottle
TTITLE11=Right Now Blues
TTITLE12=Travellin' Riverside
TTITLE13=Yellow Dog Blues
EXTD=
EXTT0=
EXTT1=
EXTT2=
EXTT3=
EXTT4=
EXTT5=
EXTT6=
EXTT7=
EXTT8=
EXTT9=
EXTT10=
EXTT11=
EXTT12=
EXTT13=
PLAYORDER=
